<?xml version="1.0" encoding="UTF-8"?><svg id="a" xmlns="http://www.w3.org/2000/svg" viewBox="0 0 400 400"><defs><style>.b{fill:#119497;}.c{fill:#14ecd6;}.d{fill:#13dcc7;}.e{fill:#1d5d95;}.f{fill:#11ada5;}.g{fill:#13c1b8;}.h{fill:#13b0c7;}.i{fill:#13c8c7;}.j{fill:#12a3b9;}.k{fill:#0f8b9e;}</style></defs><g><path class="e" d="M267.2,301.72l-76.52-10.19-80.12-46.26-.71-1.71-.21,.12-36.09-68.05,96.96-55.59,1.43,.53,.38-1.57,18.62-10.68,51.01-25.25,58.49-6.81-4.11-3.44c-29.74-24.92-67.53-38.65-106.41-38.65-19.55,0-38.69,3.37-56.89,10-36.49,13.33-67.29,39.22-86.73,72.91-9.76,16.81-16.4,35.08-19.75,54.3-1.63,9.38-2.46,19.01-2.46,28.62,0,29.17,7.68,57.84,22.21,82.92,9.74,16.84,22.25,31.72,37.02,44.11l.17,.16c29.79,24.92,67.59,38.65,106.43,38.65,19.48,0,38.62-3.37,56.9-10.03,36.46-13.34,67.26-39.23,86.71-72.89l3.11-5.38-69.44,24.17Zm-22.88,50.07c-10.15,3.63-20.56,6.2-31.16,7.73l-19.93-63,70.89,9.44-19.8,45.82Zm-36.78,5.27l-64.14-37.72,45.14-22.33,19,60.04Zm-22.5-63.47l-45.3,22.41-26.28-63.73,71.58,41.32Zm-82.07-52.66L31.06,200l38.49-22.07,33.41,63.01ZM135.54,48.2c16.5-5.9,33.78-9.03,51.43-9.34l-18.28,75.57-53.19-19.83,20.05-46.4Zm-24.21,100.46l3.19-49.49,50.38,18.78-53.57,30.71Zm-4.67,.61l-52.83-30.5,56.05-19.52-3.22,50.02Zm82.12-45.01l-14.95,8.57,17.45-72.13,45.87,39.6-48.37,23.95Zm53.26-25.84l-45.74-39.49c33.72,1.34,66.29,13.26,92.85,34.01l-47.1,5.48Zm-112.52-27.91l-18.35,42.48-.96,1.25-56.59,19.71c18.02-28.55,44.64-50.79,75.9-63.44ZM31.1,172.18c3.12-17.92,9.22-34.98,18.08-50.76l54.64,31.54L28.76,195.99c.2-8.01,.98-16,2.34-23.81Zm-2.32,31.84l75.3,42.87-54.91,31.7c-12.73-22.73-19.74-48.38-20.39-74.58Zm22.71,78.57l56.1-32.39,27.64,67.03-49.53,5.76c-13.59-11.54-25.08-25.13-34.21-40.4Zm39.2,44.47l46.37-5.39,.28,.67,1.1-.54,65.94,38.78c-4.79,.43-9.62,.65-14.46,.65-36,0-71.07-12.15-99.23-34.16Zm159.64,22.43l18.82-43.55,57.08-19.87c-18.02,28.52-44.65,50.76-75.89,63.42Z"/><path class="h" d="M264.85,315.07c-5.3,0-9.62-4.32-9.62-9.62s4.32-9.62,9.62-9.62,9.62,4.32,9.62,9.62-4.32,9.62-9.62,9.62Z"/><path class="h" d="M26.98,209.53c-5.3,0-9.62-4.32-9.62-9.62s4.32-9.62,9.62-9.62,9.62,4.32,9.62,9.62-4.32,9.62-9.62,9.62Z"/><path class="h" d="M190.42,47.27c-5.3,0-9.62-4.32-9.62-9.62s4.32-9.62,9.62-9.62,9.62,4.32,9.62,9.62-4.32,9.62-9.62,9.62Z"/><path class="h" d="M212.96,371.61c-5.3,0-9.62-4.32-9.62-9.62s4.32-9.62,9.62-9.62,9.62,4.32,9.62,9.62-4.32,9.62-9.62,9.62Z"/></g><g><g><g><g><polygon class="j" points="169.39 203.18 133.67 212.38 127.88 203.48 169.39 203.18"/><polygon class="j" points="114.27 226.05 112.75 240.39 97.41 216.47 114.27 226.05"/><polygon class="h" points="280.1 196.05 178.32 229.26 198.07 214.87 280.1 196.05"/><polygon class="h" points="133.67 212.38 127.93 223.57 114.27 226.05 115.87 221.93 127.88 203.48 133.67 212.38"/><polygon class="k" points="127.87 203.45 127.88 203.48 115.87 221.93 114.27 226.05 97.41 216.47 127.85 203.46 127.87 203.45"/><polygon class="k" points="171.7 215.66 143.48 220.76 114.27 226.05 133.67 212.38 171.7 215.66"/><polygon class="k" points="280.1 196.05 198.07 214.87 192.48 211.9 169.39 203.18 280.1 196.05"/><polygon class="h" points="178.32 229.26 112.75 240.39 114.27 226.05 127.93 223.57 143.48 220.76 178.32 229.26"/><polygon class="h" points="192.48 211.9 171.72 215.66 171.7 215.66 133.67 212.38 169.39 203.18 192.48 211.9"/><polygon class="j" points="198.07 214.87 178.32 229.26 143.48 220.76 171.7 215.66 171.72 215.66 192.48 211.9 198.07 214.87"/></g><g><polygon class="j" points="169.37 110.76 127.83 90.15 129.65 76.92 169.37 110.76"/><polygon class="j" points="98.16 87.21 84.92 99.59 94.83 69.39 98.16 87.21"/><polygon class="h" points="280.1 196.05 156.71 142.95 187.33 145.51 280.1 196.05"/><polygon class="h" points="127.83 90.15 113.18 96.08 98.16 87.21 103.06 84.6 129.65 76.92 127.83 90.15"/><polygon class="k" points="129.66 76.9 129.65 76.92 103.06 84.6 98.16 87.21 94.83 69.39 129.63 76.88 129.66 76.9"/><polygon class="k" points="161.31 124.53 130.28 106.19 98.16 87.21 127.83 90.15 161.31 124.53"/><polygon class="k" points="280.1 196.05 187.33 145.51 184.45 138.08 169.66 110.81 280.1 196.05"/><polygon class="h" points="156.43 142.91 84.92 99.59 98.16 87.21 113.18 96.08 130.28 106.19 156.43 142.91"/><polygon class="h" points="184.16 138.03 161.34 124.55 161.31 124.53 127.83 90.15 169.37 110.76 184.16 138.03"/><polygon class="j" points="187.05 145.46 156.43 142.91 130.28 106.19 161.31 124.53 161.34 124.55 184.16 138.03 187.05 145.46"/></g></g><g><g><polygon class="c" points="135.21 25.28 118.64 41.31 75.54 10.61 135.21 25.28"/><polygon class="c" points="219.16 99.95 175.88 75.21 135.21 25.28 219.16 99.95"/><polygon class="c" points="280.1 196.05 227.06 127.78 219.16 99.95 280.1 196.05"/><polygon class="i" points="227.06 127.78 198.4 127.1 158.86 93.69 118.64 41.31 175.88 75.21 227.06 127.78"/><polygon class="d" points="151.34 105.37 107.3 68.94 107.31 68.91 151.34 105.37"/><polygon class="h" points="280.1 196.05 176.94 126.56 198.4 127.1 280.1 196.05"/><polygon class="d" points="151.34 105.37 107.3 68.94 107.31 68.91 151.34 105.37"/><polygon class="h" points="175.88 75.21 118.64 41.31 135.21 25.28 175.88 75.21"/><polygon class="d" points="227.06 127.78 175.88 75.21 219.16 99.95 227.06 127.78"/><polygon class="i" points="118.64 41.31 89.53 35.19 75.54 41.31 75.54 10.61 118.64 41.31"/><polygon class="c" points="176.94 126.56 151.34 105.37 107.31 68.91 107.28 68.9 75.54 41.31 89.53 35.19 118.64 41.31 158.86 93.69 176.94 126.56"/><polygon class="h" points="198.4 127.1 176.94 126.56 158.86 93.69 198.4 127.1"/><polygon class="d" points="280.1 196.05 198.4 127.1 227.06 127.78 280.1 196.05"/></g><g><polygon class="c" points="92.93 165.69 91.07 185.13 46.44 189.05 92.93 165.69"/><polygon class="c" points="188.03 167.63 146.56 175.48 92.93 165.69 188.03 167.63"/><polygon class="c" points="280.1 196.05 208.42 181.2 188.03 167.63 280.1 196.05"/><polygon class="i" points="208.42 181.2 189.59 196.52 145.76 196.74 91.07 185.13 146.56 175.48 208.42 181.2"/><polygon class="d" points="147.34 208.4 98.95 209.15 98.95 209.12 147.34 208.4"/><polygon class="h" points="280.1 196.05 175.47 207.97 189.59 196.52 280.1 196.05"/><polygon class="d" points="147.34 208.4 98.95 209.15 98.95 209.12 147.34 208.4"/><polygon class="h" points="146.56 175.48 91.07 185.13 92.93 165.69 146.56 175.48"/><polygon class="d" points="208.42 181.2 146.56 175.48 188.03 167.63 208.42 181.2"/><polygon class="i" points="91.07 185.13 68.96 197.19 63.32 208.82 46.44 189.05 91.07 185.13"/><polygon class="c" points="175.47 207.97 147.34 208.4 98.95 209.12 98.92 209.13 63.32 208.82 68.96 197.19 91.07 185.13 145.76 196.74 175.47 207.97"/><polygon class="h" points="189.59 196.52 175.47 207.97 145.76 196.74 189.59 196.52"/><polygon class="d" points="280.1 196.05 189.59 196.52 208.42 181.2 280.1 196.05"/></g></g></g><g><polygon class="f" points="388.73 198.5 364.22 189.11 376.76 168.01 388.73 198.5"/><polygon class="e" points="388.73 198.5 362.8 209.36 364.22 189.11 388.73 198.5"/><polygon class="f" points="364.22 189.11 337.76 206.88 336.52 209.36 333.91 187.95 348.35 163.53 364.22 189.11"/><polygon class="b" points="333.91 187.95 319.46 195.71 307.31 202.27 318.79 186.09 333.91 187.95"/><polygon class="b" points="336.52 209.36 318.79 236.58 295.79 218.54 320.7 212.95 336.52 209.36"/><polygon class="e" points="318.79 236.58 274.6 240.25 235.91 247.12 263.61 225.8 295.79 218.54 318.79 236.58"/><polygon class="e" points="274.6 240.25 207.97 282.62 229.84 260.95 274.6 240.25"/><polygon class="e" points="207.88 282.71 139.92 339.11 170.09 294.33 170.14 294.28 170.18 294.28 207.88 282.71"/><polygon class="e" points="139.92 339.11 72.49 384.86 83.53 353.41 139.92 339.11"/><polygon class="e" points="72.49 384.86 11.27 389.39 16.99 363.68 72.49 384.86"/><polygon class="b" points="235.82 247.21 229.84 260.95 196.46 276.33 209.14 267.69 235.82 247.21"/><polygon class="f" points="318.79 186.09 307.31 202.27 263.61 225.8 279.55 195.82 318.79 186.09"/><polygon class="b" points="376.76 168.01 364.22 189.11 348.35 163.53 376.76 168.01"/><polygon class="e" points="364.22 189.11 362.8 209.36 337.76 206.88 364.22 189.11"/><polygon class="g" points="307.31 202.27 295.79 218.54 263.61 225.8 307.31 202.27"/><polygon class="b" points="336.52 209.36 320.7 212.95 295.79 218.54 307.31 202.27 319.46 195.71 333.91 187.95 336.52 209.36"/><polygon class="f" points="229.84 260.95 207.97 282.62 207.93 282.71 207.88 282.71 170.18 294.28 196.46 276.33 229.84 260.95"/><polygon class="b" points="170.09 294.33 139.92 339.11 83.53 353.41 170.09 294.33"/><polygon class="f" points="196.46 276.33 170.18 294.28 170.14 294.28 170.09 294.33 83.53 353.41 16.99 363.68 196.46 276.33"/><g><polygon class="b" points="83.53 353.41 72.49 384.86 16.99 363.68 83.53 353.41"/><polyline class="e" points="72.49 384.86 93.64 343.7 139.92 339.11"/><polyline class="b" points="139.92 339.11 93.64 343.7 170.09 294.33"/><polyline class="f" points="170.09 294.33 93.64 343.7 16.99 363.68"/><polyline class="b" points="16.99 363.68 93.64 343.7 72.49 384.86"/></g><polygon class="b" points="274.6 240.25 229.84 260.95 235.82 247.21 235.87 247.12 235.91 247.12 274.6 240.25"/></g></g></svg>